# xmcd CD database file
#
# Track frame offsets:
#	150
#	46926
#	88697
#	121380
#	151372
#	177906
#	207543
#	235050
#	255576
#	283152
#
# Disc length: 4058 seconds
#
# Revision: 0
# Processed by: cddbd v1.5.2PL0 Copyright (c) Steve Scherf et al.
# Submitted via: CDex 1.82
#
DISCID=890fd80a
DTITLE=imuZZic Grand(s) Ensemble - Over the Hills
DYEAR=2015
DGENRE=Jazz
TTITLE0=Hotel Overture
TTITLE1=Rawalpindi Blues
TTITLE2=All India Radio
TTITLE3=Oh Say Can You Do ?
TTITLE4=Holiday in Risk
TTITLE5=Businessmen
TTITLE6=Detective Writer Daughter
TTITLE7=Slow Dance
TTITLE8=Small Town Agonist
TTITLE9=EOTH Theme
EXTD=YEAR: 2015
EXTT0=
EXTT1=
EXTT2=
EXTT3=
EXTT4=
EXTT5=
EXTT6=
EXTT7=
EXTT8=
EXTT9=
PLAYORDER=
